<svg version="1.0" xmlns="http://www.w3.org/2000/svg"
 width="1024.000000pt" height="768.000000pt" viewBox="0 0 1024.000000 768.000000"
 preserveAspectRatio="xMidYMid meet">

<g transform="translate(0.000000,768.000000) scale(0.100000,-0.100000)"
fill="#000000" stroke="none">
<path d="M0 3840 l0 -3840 5120 0 5120 0 0 3840 0 3840 -5120 0 -5120 0 0
-3840z m1643 2529 c40 -11 142 -97 332 -279 55 -52 195 -183 310 -290 422
-391 506 -482 576 -620 26 -50 33 -78 33 -120 1 -71 -22 -108 -112 -182 -101
-83 -382 -357 -676 -659 -179 -183 -277 -276 -319 -302 -209 -128 -555 -128
-695 1 -71 66 -69 108 10 204 93 113 489 501 683 669 296 256 480 421 483 433
5 22 -124 160 -394 421 -148 143 -298 287 -334 319 -181 166 -270 258 -270
280 0 84 236 163 373 125z m1797 -2111 c309 -12 2030 -18 2520 -8 234 5 258 3
292 -14 42 -20 76 -69 85 -119 6 -42 -25 -107 -66 -137 -75 -53 -437 -88
-1361 -131 -371 -17 -1624 -24 -1850 -9 -224 14 -263 25 -304 87 -47 72 -43
157 12 236 57 85 145 120 277 112 50 -2 227 -10 395 -17z m-630 -1164 l0 -226
39 31 c22 18 73 63 114 101 70 66 78 70 121 70 l46 0 -15 -24 c-8 -13 -60 -62
-114 -110 l-100 -87 86 -82 c86 -82 163 -171 163 -188 0 -5 -22 -9 -49 -9 -45
0 -50 3 -76 40 -30 43 -131 141 -183 179 l-32 22 0 -120 0 -121 -45 0 -45 0 0
369 0 370 28 4 c68 10 62 30 62 -219z m3566 206 c29 -10 31 -14 25 -43 -6 -27
-11 -32 -32 -29 -13 1 -47 5 -76 8 -29 4 -64 3 -78 0 -36 -9 -65 -61 -65 -118
l0 -48 100 0 100 0 0 -35 0 -35 -100 0 -100 0 0 -215 0 -215 -45 0 -45 0 0
215 0 215 -55 0 -55 0 0 35 0 35 55 0 55 0 0 53 c1 87 49 166 116 187 35 12
158 5 200 -10z m-2919 -24 c7 -6 15 -26 19 -43 5 -26 1 -37 -19 -57 -15 -14
-37 -26 -50 -26 -35 0 -67 35 -67 74 0 62 73 94 117 52z m3233 -126 l0 -80
105 0 105 0 0 -35 0 -35 -105 0 -105 0 0 -145 c0 -194 11 -214 112 -215 20 0
49 5 64 10 32 12 44 1 44 -41 0 -23 -6 -28 -45 -39 -58 -16 -163 -8 -199 15
-53 35 -61 65 -64 248 l-4 167 -54 0 -54 0 0 35 0 35 55 0 54 0 3 73 3 72 35
6 c19 4 38 7 43 8 4 0 7 -35 7 -79z m-4759 -91 c130 -65 168 -263 78 -404 -60
-94 -190 -121 -292 -62 -152 90 -150 372 3 461 63 37 143 39 211 5z m2747 10
l52 -10 0 -243 c0 -278 -8 -325 -64 -374 -20 -17 -56 -35 -86 -42 -57 -14
-176 -9 -221 8 -24 10 -26 14 -20 44 6 27 11 33 32 30 209 -21 246 -8 264 91
l6 39 -33 -9 c-18 -4 -63 -8 -99 -8 -56 1 -73 5 -108 28 -117 78 -124 315 -13
409 29 24 61 38 117 51 24 6 100 0 173 -14z m537 2 c27 -7 30 -11 27 -42 -2
-19 -5 -35 -6 -36 -1 -2 -39 3 -83 9 -99 14 -157 2 -176 -39 -10 -23 -8 -28
16 -49 14 -12 66 -38 114 -56 58 -22 101 -46 126 -70 38 -36 39 -39 35 -93 -6
-70 -32 -100 -107 -122 -61 -17 -191 -14 -250 8 -31 11 -33 14 -28 47 4 19 8
37 11 39 3 3 26 -2 52 -11 26 -9 79 -16 119 -16 87 0 118 17 113 63 -3 26 -11
35 -53 57 -27 14 -74 33 -104 43 -29 11 -72 36 -94 56 -34 32 -40 43 -40 80 0
73 57 128 144 140 56 8 131 4 184 -8z m502 -13 c84 -39 128 -132 121 -256 -9
-149 -95 -242 -223 -242 -124 0 -213 93 -223 231 -10 150 51 254 167 285 54
15 100 10 158 -18z m2178 -1 c69 -38 79 -72 83 -289 l4 -187 -38 -8 c-22 -4
-88 -8 -149 -8 -92 0 -116 3 -144 20 -56 33 -76 68 -76 136 0 54 3 61 36 95
46 46 126 67 218 58 l64 -7 -8 39 c-15 85 -54 110 -156 100 -37 -3 -74 -9 -82
-12 -10 -4 -16 4 -20 28 -3 18 -1 37 3 42 13 13 118 25 175 19 28 -3 68 -15
90 -26z m1025 22 c95 -20 149 -93 158 -211 l5 -68 -182 0 -181 0 6 -27 c12
-52 39 -88 84 -111 38 -20 55 -23 115 -18 39 2 80 8 91 11 19 6 22 2 26 -30 4
-32 1 -38 -21 -48 -14 -6 -69 -11 -121 -11 -80 -1 -102 3 -136 21 -92 49 -142
152 -130 265 12 114 77 198 174 224 60 16 52 16 112 3z m-6361 -8 c9 -6 12
-19 7 -42 l-6 -34 -91 4 c-49 1 -105 0 -124 -3 l-35 -7 -2 -207 -3 -207 -42
-3 -43 -3 0 240 c0 133 3 241 8 241 4 1 30 7 57 15 56 15 252 20 274 6z m1524
-5 c44 -19 83 -64 96 -111 6 -22 11 -118 11 -212 l0 -173 -45 0 -45 0 0 170
c0 241 -10 260 -139 260 l-71 0 0 -215 0 -215 -45 0 -45 0 0 244 0 245 43 9
c66 15 203 14 240 -2z m4425 5 c9 -5 11 -19 7 -42 l-6 -34 -85 4 c-47 2 -105
0 -130 -4 l-44 -6 0 -210 0 -210 -42 3 -43 3 -3 229 c-1 135 2 234 7 239 29
29 303 51 339 28z m-7378 -37 c0 -53 31 -296 40 -313 5 -9 22 30 48 110 l41
124 35 3 c25 2 36 -1 36 -10 0 -27 74 -238 80 -231 4 4 15 71 24 148 27 225
21 205 67 205 l40 0 -6 -57 c-9 -73 -50 -320 -65 -391 -12 -53 -12 -53 -48
-50 l-36 3 -45 123 c-25 67 -49 122 -53 122 -4 0 -10 -10 -13 -22 -4 -13 -25
-69 -47 -125 -39 -102 -40 -103 -73 -103 -23 0 -35 5 -39 18 -17 57 -76 420
-76 467 0 11 12 15 45 15 l45 0 0 -36z m2350 -157 c0 -193 0 -194 25 -217 21
-19 31 -22 72 -17 26 3 56 9 66 12 13 6 17 2 19 -19 0 -14 1 -32 2 -38 3 -34
-142 -49 -201 -21 -60 28 -75 78 -81 265 l-5 158 -68 0 -69 0 0 35 0 35 120 0
120 0 0 -193z m3594 161 c3 -18 13 -100 22 -181 10 -89 21 -144 26 -139 5 5
27 61 48 123 l38 114 32 0 32 0 42 -130 43 -130 11 70 c19 114 32 224 32 266
l0 39 45 0 c43 0 44 -1 40 -27 -2 -16 -9 -68 -16 -118 -12 -97 -56 -333 -65
-346 -3 -5 -18 -9 -34 -9 -35 0 -39 7 -86 138 -19 53 -37 104 -40 112 -6 15
-7 13 -74 -163 l-33 -88 -36 3 -36 3 -22 115 c-25 127 -53 317 -53 355 0 22 4
25 40 25 36 0 39 -2 44 -32z m-3964 -811 c42 -11 45 -14 43 -45 -2 -44 -4 -45
-50 -33 -21 6 -60 11 -86 11 -40 0 -54 -5 -78 -29 -25 -26 -29 -37 -29 -85 l0
-56 100 0 100 0 0 -35 0 -35 -100 0 -100 0 -2 -212 -3 -213 -45 0 -45 0 -3
213 -2 212 -50 0 -50 0 0 35 0 35 49 0 49 0 7 63 c8 64 32 123 59 146 46 38
149 50 236 28z m-1660 -233 c48 -7 53 -13 40 -51 l-11 -29 -93 4 c-156 7 -208
-34 -214 -168 -3 -65 -1 -79 20 -109 38 -56 81 -76 168 -76 41 0 89 3 106 7
31 7 32 6 36 -28 4 -31 1 -37 -21 -46 -49 -20 -173 -22 -235 -4 -137 40 -206
182 -161 334 27 91 103 154 204 172 44 8 76 7 161 -6z m485 -18 c158 -85 165
-365 12 -460 -188 -116 -391 67 -333 301 10 40 28 82 45 103 69 85 179 108
276 56z m1633 2 c55 -26 88 -82 102 -173 5 -39 10 -73 10 -77 0 -5 -82 -8
-181 -8 l-182 0 6 -34 c7 -46 33 -84 70 -103 40 -20 131 -27 187 -14 24 5 46
9 47 7 1 -1 4 -17 5 -36 3 -32 0 -35 -37 -46 -63 -20 -157 -17 -219 7 -100 37
-152 126 -149 255 2 73 23 127 66 172 76 79 174 97 275 50z m1084 1 c61 -31
91 -89 104 -199 l7 -60 -182 0 c-176 0 -181 -1 -181 -20 0 -35 36 -94 70 -114
39 -23 130 -31 190 -17 24 5 46 8 48 7 1 -2 5 -19 9 -39 l5 -35 -51 -11 c-214
-46 -361 53 -361 243 0 88 15 136 58 186 72 85 185 108 284 59z m1146 10 c23
-9 26 -19 16 -54 -5 -18 -13 -20 -114 -20 -126 0 -149 -11 -187 -85 -44 -85
-20 -196 52 -240 44 -27 149 -38 209 -21 22 6 41 9 43 7 2 -2 6 -19 10 -39 l5
-35 -58 -12 c-84 -18 -182 -8 -247 23 -86 42 -127 118 -127 231 1 141 73 228
211 255 47 10 149 4 187 -10z m472 -9 c66 -34 97 -90 107 -196 l6 -64 -182 0
c-200 0 -195 2 -167 -63 32 -77 115 -109 231 -90 66 11 75 7 75 -39 0 -24 -5
-27 -50 -37 -169 -36 -303 21 -345 149 -23 69 -17 178 13 236 59 114 198 161
312 104z m-3813 9 c15 -5 40 -22 56 -37 45 -43 57 -105 57 -294 l0 -168 -44 0
-44 0 -4 178 c-5 237 -14 252 -143 252 l-65 0 0 -215 0 -215 -45 0 -45 0 0
245 0 245 23 4 c12 3 31 7 42 9 42 9 185 7 212 -4z m1720 5 c12 -3 20 -11 18
-17 -2 -7 -6 -23 -9 -37 -5 -25 -6 -25 -96 -21 -50 1 -107 0 -126 -3 l-34 -7
0 -209 0 -210 -45 0 -45 0 0 240 c0 132 3 240 8 240 4 1 30 7 57 15 50 14 231
20 272 9z m1003 -17 c76 -40 84 -69 88 -294 l3 -193 -45 0 -46 0 0 170 c0 241
-10 260 -139 260 l-71 0 0 -215 0 -215 -45 0 -45 0 0 244 0 245 43 9 c23 6 81
10 128 11 72 1 93 -3 129 -22z"/>
<path d="M1758 2980 c-40 -31 -58 -80 -58 -157 1 -117 47 -183 130 -183 81 0
130 68 130 180 0 81 -16 128 -55 158 -37 29 -112 30 -147 2z"/>
<path d="M4458 2978 c-36 -30 -58 -86 -58 -148 0 -108 54 -165 147 -156 96 8
94 5 91 174 l-3 147 -75 3 c-66 2 -78 0 -102 -20z"/>
<path d="M5532 2971 c-67 -67 -69 -220 -4 -293 55 -60 158 -43 197 33 41 77
27 206 -27 260 -25 25 -37 29 -83 29 -46 0 -58 -4 -83 -29z"/>
<path d="M7710 2787 c-37 -19 -56 -60 -45 -94 15 -40 49 -53 143 -53 l82 0 0
74 c0 58 -3 75 -16 80 -28 11 -138 6 -164 -7z"/>
<path d="M8810 2993 c-38 -20 -80 -75 -80 -104 0 -18 10 -19 130 -19 143 0
143 0 116 63 -29 69 -100 94 -166 60z"/>
<path d="M1758 1900 c-40 -31 -58 -80 -58 -157 1 -117 47 -183 130 -183 81 0
130 68 130 180 0 81 -16 128 -55 158 -37 29 -112 30 -147 2z"/>
<path d="M3401 1912 c-39 -19 -67 -54 -77 -94 l-6 -28 131 0 131 0 0 26 c0 57
-61 114 -122 114 -12 0 -38 -8 -57 -18z"/>
<path d="M4480 1911 c-33 -17 -79 -81 -80 -108 0 -10 33 -13 130 -13 l130 0 0
25 c0 42 -29 85 -65 101 -46 19 -73 18 -115 -5z"/>
<path d="M6099 1910 c-32 -17 -79 -85 -79 -113 0 -4 60 -7 134 -7 l134 0 -7
33 c-12 49 -29 75 -61 92 -39 20 -77 18 -121 -5z"/>
</g>
</svg>
